<svg id="Capa_1" data-name="Capa 1" xmlns="http://www.w3.org/2000/svg" viewBox="0 0 308.1 500"><defs><style>.cls-1{fill:#0ea7de;}.cls-2{fill:#39ac4b;}.cls-3{fill:#0571af;}</style></defs><path class="cls-1" d="M131.39,500h77.7C209.09,390.57,115.3,301.54,0,301.54v66.94C72.45,368.48,131.39,427.48,131.39,500Z"/><path class="cls-2" d="M0,417.25v48.22A34.52,34.52,0,0,0,34.5,500H82.67A82.8,82.8,0,0,0,0,417.25Z"/><path class="cls-3" d="M273.6,209.11H85.23V144.49c0-52.66,30.82-82.41,68.83-82.41s68.83,29.75,68.83,82.41H223a24.16,24.16,0,0,0,48.2.12,1.47,1.47,0,0,0,.1-.13V119C271.28,51.73,215.62-3,148.54.13A117.27,117.27,0,0,0,36.85,117.32l0,91.79H34.5A34.51,34.51,0,0,0,0,243.64v11c141.13,0,256,110.07,256,245.36H273.6a34.52,34.52,0,0,0,34.5-34.53V243.64A34.52,34.52,0,0,0,273.6,209.11Z"/></svg>